# xmcd
#
# Track frame offsets:
#	150
#	14717
#	35942
#	58613
#	75845
#	93789
#	115867
#	138868
#	155524
#	173858
#	192012
#	216677
#	242402
#	263280
#	281296
#	293450
#	304312
#	338310
#
# Disc length: 4797
#
# Revision: 1
# Processed by: cddbd v1.5.1PL0 Copyright (c) Steve Scherf et al.
# Submitted via: Axialis_AX_CDPlayer 2.6
# Normalized: r0:TDELIM( - )
#
DISCID=eb12bb12
DTITLE=Various Artist - Seattle's Best Blues - Volume 2
DYEAR=1900
DGENRE=
TTITLE0=Cherry Red - Little Bill
TTITLE1=Nappin' - Danny Hull
TTITLE2=Born to Lose - Mark DuFresne
TTITLE3=Still Got You - Bump Kitchen
TTITLE4=Will They Let Me Play The Blues In Heaven - Double Cookin'
TTITLE5=Just One Night - Nicole
TTITLE6=Blues Kernnunos - Tim Sherman Band
TTITLE7=Pepperjelly - Junkyard Jane
TTITLE8=What You Did Last Night - Tim Casey and The Bluescats
TTITLE9=Serious Business - Brian Butler
TTITLE10=Blues In The Bottle - Alice Stuart
TTITLE11=One-Sided Love Affair - Jerry Miller
TTITLE12=Heaven When You're Near - Rod Cook and Toast
TTITLE13=Cut Me Off - Nick Vigarino
TTITLE14=Morning Coffee - Annieville Blues
TTITLE15=I Don't Go For That - The Hudson Blues Band
TTITLE16=Nothin' Good To Say - Smokin' Gun
TTITLE17=Blues I Know - Aaron Richner and The Blues Drivers
EXTD=
EXTT0=
EXTT1=
EXTT2=
EXTT3=
EXTT4=
EXTT5=
EXTT6=
EXTT7=
EXTT8=
EXTT9=
EXTT10=
EXTT11=
EXTT12=
EXTT13=
EXTT14=
EXTT15=
EXTT16=
EXTT17=
PLAYORDER=
